<mxfile host="app.diagrams.net" modified="2023-10-16T05:05:25.849Z" agent="Mozilla/5.0 (Windows NT 10.0; Win64; x64) AppleWebKit/537.36 (KHTML, like Gecko) Chrome/117.0.0.0 Safari/537.36" version="22.0.4" etag="mUc5qa0jnTfAmt0gt1wN" type="github">
  <diagram name="PÃ¡gina-1" id="nNkLkgUHUHhB1Lq8jRqC">
    <mxGraphModel>
      <root>
        <mxCell id="0" />
        <mxCell id="1" parent="0" />
      </root>
    </mxGraphModel>
  </diagram>
</mxfile>
